<svg xmlns="http://www.w3.org/2000/svg" viewBox="0 0 200 240" role="img" aria-label="Lumo fox tutor">
  <defs>
    <linearGradient id="g" x1="0%" y1="0%" x2="0%" y2="100%">
      <stop offset="0%" style="stop-color:#fb923c"/>
      <stop offset="100%" style="stop-color:#ea580c"/>
    </linearGradient>
  </defs>
  <ellipse cx="100" cy="200" rx="70" ry="18" fill="rgba(0,0,0,0.08)"/>
  <path fill="url(#g)" d="M100 40c-38 0-62 28-62 62 0 48 28 88 62 88s62-40 62-88c0-34-24-62-62-62z"/>
  <path fill="#c2410c" d="M58 52c-8-18-4-32 8-36 12-4 28 6 36 26-14-6-28-6-44 10zM142 52c8-18 4-32-8-36-12-4-28 6-36 26 14-6 28-6 44 10z"/>
  <ellipse cx="100" cy="95" rx="48" ry="44" fill="#fdba74"/>
  <circle cx="82" cy="88" r="8" fill="#1e293b"/>
  <circle cx="118" cy="88" r="8" fill="#1e293b"/>
  <circle cx="84" cy="86" r="2.5" fill="#fff"/>
  <circle cx="120" cy="86" r="2.5" fill="#fff"/>
  <ellipse cx="100" cy="108" rx="10" ry="8" fill="#1e293b"/>
  <path fill="#fff" d="M92 104c4 6 12 6 16 0-4 8-12 8-16 0z"/>
</svg>
